# xmcd
#
# Track frame offsets:
#	150
#	3091
#	20654
#	36044
#	59665
#	75464
#	92952
#	112467
#	141005
#	157655
#	174904
#
# Disc length: 2670 seconds
#
# Revision: 23
# Processed by: cddbd v1.5.2PL0 Copyright (c) Steve Scherf et al.
# Submitted via: Jack! The Knife 20 Magnifico
#
DISCID=830a6c0b
DTITLE=Helloween - Pink Bubbles Go Ape
DYEAR=1991
DGENRE=Metal
TTITLE0=Pink Bubbles Go Ape
TTITLE1=Kids Of The Century
TTITLE2=Back On The Streets
TTITLE3=Number One
TTITLE4=Heavy Metal Hamsters
TTITLE5=Goin' Home
TTITLE6=Someone's Crying
TTITLE7=Mankind
TTITLE8=I'm Doin' Fine, Crazy Man
TTITLE9=The Chance
TTITLE10=Your Turn
EXTD=Chris Tsangarides
EXTT0=Michael Kiske
EXTT1=Michael Kiske
EXTT2=Kiske, Grapow
EXTT3=Michael Weikath
EXTT4=Weikath, Kiske
EXTT5=Michael Kiske
EXTT6=Roland Grapow
EXTT7=Grapow, Kiske
EXTT8=Grosskopf, Kiske
EXTT9=Roland Grapow
EXTT10=Michael Kiske
PLAYORDER=
